<?xml version="1.0" encoding="utf-8"?>
<!-- Generator: Adobe Illustrator 19.0.0, SVG Export Plug-In . SVG Version: 6.00 Build 0)  -->
<svg version="1.1" id="Layer_1" xmlns="http://www.w3.org/2000/svg" xmlns:xlink="http://www.w3.org/1999/xlink" x="0px" y="0px"
	 viewBox="264 217 1140 360" style="enable-background:new 264 217 1140 360;" xml:space="preserve">
<style type="text/css">
	.st0{fill:#56B4D9;}
	.st1{fill:#FFFFFF;stroke:#000000;stroke-miterlimit:10;}
	.st2{font-family:'Verdana';}
	.st3{font-size:48px;}
</style>
<path class="st0" d="M264,217h1140v360H264V217z"/>
<path class="st1" d="M382,164.1h-4l-3.3-8.6h-13.1l-3.1,8.6h-4l11.8-30.8h3.7L382,164.1L382,164.1z M373.6,152.2l-4.8-13.1
	c-0.2-0.4-0.3-1.1-0.5-2.1h-0.1c-0.1,0.9-0.3,1.6-0.5,2.1l-4.8,13.1H373.6L373.6,152.2z M384.5,162.9v-4.3c0.5,0.4,1.1,0.8,1.8,1.2
	c0.7,0.3,1.4,0.6,2.1,0.9c0.8,0.2,1.5,0.4,2.3,0.5c0.8,0.1,1.5,0.2,2.1,0.2c2.2,0,3.9-0.4,5-1.2s1.6-2,1.6-3.6
	c0-0.8-0.2-1.6-0.5-2.2c-0.4-0.6-0.9-1.2-1.5-1.7c-0.6-0.5-1.4-1-2.3-1.5c-0.9-0.5-1.8-1-2.8-1.5c-1.1-0.5-2.1-1.1-3-1.7
	c-0.9-0.6-1.7-1.2-2.4-1.8c-0.7-0.7-1.2-1.4-1.6-2.3c-0.4-0.9-0.6-1.9-0.6-3c0-1.4,0.3-2.6,0.9-3.7s1.4-1.9,2.4-2.6
	c1-0.7,2.1-1.2,3.4-1.5c1.3-0.3,2.6-0.5,3.9-0.5c3,0,5.2,0.4,6.6,1.1v4.1c-1.8-1.3-4.2-1.9-7-1.9c-0.8,0-1.6,0.1-2.4,0.2
	c-0.8,0.2-1.5,0.4-2.1,0.8c-0.6,0.4-1.1,0.9-1.5,1.4c-0.4,0.6-0.6,1.3-0.6,2.1c0,0.8,0.1,1.5,0.4,2c0.3,0.6,0.7,1.1,1.3,1.6
	c0.6,0.5,1.3,0.9,2.1,1.4c0.8,0.4,1.8,0.9,2.8,1.5c1.1,0.5,2.1,1.1,3.1,1.7s1.9,1.3,2.6,2c0.7,0.7,1.3,1.5,1.8,2.4s0.7,1.9,0.7,3.1
	c0,1.5-0.3,2.8-0.9,3.9c-0.6,1.1-1.4,1.9-2.4,2.6s-2.2,1.1-3.5,1.4c-1.3,0.3-2.7,0.4-4.2,0.4c-0.5,0-1.1,0-1.8-0.1
	c-0.7-0.1-1.4-0.2-2.2-0.3c-0.7-0.1-1.5-0.3-2.1-0.6C385.4,163.4,384.9,163.1,384.5,162.9L384.5,162.9z M412.3,152.5v11.6h-3.6
	v-30.8h8.5c3.3,0,5.8,0.8,7.7,2.4s2.7,3.9,2.7,6.8s-1,5.3-3,7.2c-2,1.9-4.7,2.8-8.2,2.8C416.4,152.5,412.3,152.5,412.3,152.5z
	 M412.3,136.6v12.6h3.8c2.5,0,4.4-0.6,5.7-1.7c1.3-1.1,2-2.7,2-4.8c0-4.1-2.4-6.1-7.2-6.1L412.3,136.6L412.3,136.6z M433.5,164.6
	c-0.7,0-1.2-0.2-1.7-0.7c-0.5-0.5-0.7-1-0.7-1.7s0.2-1.2,0.7-1.7c0.5-0.5,1-0.7,1.7-0.7c0.7,0,1.2,0.2,1.7,0.7
	c0.5,0.5,0.7,1,0.7,1.7s-0.2,1.2-0.7,1.7C434.7,164.3,434.2,164.6,433.5,164.6z M466.5,164.1h-4.4l-15.9-24.6
	c-0.4-0.6-0.7-1.3-1-1.9h-0.1c0.1,0.7,0.2,2.1,0.2,4.2v22.3h-3.6v-30.8h4.7l15.4,24.2c0.6,1,1.1,1.7,1.2,2.1h0.1
	c-0.1-0.9-0.2-2.4-0.2-4.5v-21.7h3.6L466.5,164.1L466.5,164.1z M490.3,164.1H474v-30.8h15.6v3.3h-12v10.2h11.1v3.2h-11.1v10.8h12.7
	L490.3,164.1L490.3,164.1z M513.8,136.6h-8.9v27.5h-3.6v-27.5h-8.9v-3.3h21.4L513.8,136.6L513.8,136.6z M550.4,162.8
	c-2.3,1.2-5.1,1.8-8.5,1.8c-4.4,0-7.9-1.4-10.5-4.2c-2.6-2.8-4-6.5-4-11.1c0-4.9,1.5-8.9,4.4-11.9c3-3,6.7-4.6,11.3-4.6
	c2.9,0,5.3,0.4,7.3,1.3v3.8c-2.2-1.2-4.6-1.8-7.3-1.8c-3.5,0-6.4,1.2-8.6,3.5c-2.2,2.4-3.3,5.5-3.3,9.5c0,3.8,1,6.7,3.1,9
	c2.1,2.2,4.8,3.3,8.1,3.3c3.1,0,5.8-0.7,8-2.1L550.4,162.8L550.4,162.8z M564.8,164.6c-3.3,0-5.8-1-7.8-3.1
	c-1.9-2.1-2.9-4.8-2.9-8.2c0-3.7,1-6.6,3-8.7s4.7-3.1,8.2-3.1c3.3,0,5.8,1,7.7,3c1.8,2,2.8,4.8,2.8,8.4c0,3.5-1,6.3-3,8.4
	S568.2,164.6,564.8,164.6L564.8,164.6z M565.1,144.5c-2.3,0-4.1,0.8-5.4,2.3c-1.3,1.5-2,3.7-2,6.4c0,2.6,0.7,4.7,2,6.2
	s3.1,2.3,5.3,2.3c2.3,0,4-0.7,5.3-2.2c1.2-1.5,1.8-3.6,1.8-6.3c0-2.8-0.6-4.9-1.8-6.4C569.1,145.3,567.4,144.5,565.1,144.5z
	 M592.3,145.7c-0.6-0.5-1.5-0.7-2.7-0.7c-1.5,0-2.8,0.7-3.8,2.1s-1.5,3.4-1.5,5.8v11.2h-3.5v-22h3.5v4.5h0.1
	c0.5-1.5,1.3-2.8,2.3-3.6s2.2-1.3,3.5-1.3c0.9,0,1.6,0.1,2.1,0.3L592.3,145.7L592.3,145.7z M613.2,154h-15.5c0.1,2.4,0.7,4.3,2,5.7
	c1.3,1.3,3,2,5.2,2c2.5,0,4.8-0.8,6.8-2.4v3.3c-1.9,1.4-4.5,2.1-7.7,2.1c-3.1,0-5.5-1-7.3-3c-1.8-2-2.7-4.8-2.7-8.4
	c0-3.4,1-6.2,2.9-8.4c1.9-2.2,4.4-3.2,7.2-3.2c2.9,0,5.1,0.9,6.7,2.8c1.6,1.9,2.4,4.4,2.4,7.8V154L613.2,154z M609.5,151
	c0-2-0.5-3.6-1.5-4.7c-1-1.1-2.3-1.7-4-1.7c-1.7,0-3.1,0.6-4.2,1.8c-1.2,1.2-1.9,2.7-2.1,4.7H609.5z M650.2,111.6h-1v74h1
	C650.2,185.6,650.2,111.6,650.2,111.6z M733.8,165.7H732l-7.2-24.2c-0.4-1.2-0.6-2.3-0.6-3h-0.1c0,0.7-0.3,1.7-0.7,3l-7.6,24.3H714
	l-9.6-32.2h2.5l7.3,25.8c0.3,1.2,0.6,2.1,0.7,2.9h0.1c0.1-0.6,0.4-1.5,0.8-2.9l8-25.8h1.1l7.3,25.8c0.3,1.2,0.6,2.1,0.7,2.9h0.1
	c0.1-0.4,0.2-0.9,0.4-1.4l7.5-27.2h2.4L733.8,165.7L733.8,165.7z M748.3,136.9c-0.4,0-0.8-0.2-1.2-0.5c-0.3-0.3-0.5-0.7-0.5-1.3
	c0-0.5,0.2-0.9,0.5-1.2c0.4-0.3,0.7-0.5,1.2-0.5c0.5,0,0.9,0.1,1.2,0.4c0.4,0.3,0.5,0.7,0.5,1.2c0,0.5-0.2,0.9-0.5,1.2
	C749.2,136.7,748.8,136.9,748.3,136.9L748.3,136.9z M747.3,165.7v-23h2.1v23H747.3z M771.5,165.7v-13.4c0-5.5-2-8.3-6-8.3
	c-2.2,0-4,0.8-5.5,2.4c-1.4,1.6-2.1,3.6-2.1,6v13.2h-2.1v-23h2.1v4.2h0.1c1.7-3.2,4.3-4.7,7.9-4.7c2.5,0,4.4,0.8,5.7,2.5
	c1.3,1.7,2,4,2,7.1v14H771.5L771.5,165.7z M796,165.7v-4.2h-0.1c-0.7,1.5-1.9,2.6-3.3,3.5c-1.5,0.9-3.1,1.3-5,1.3
	c-2.8,0-5.1-1-6.9-3.1c-1.8-2.1-2.7-4.9-2.7-8.6c0-3.7,1-6.7,2.9-9c2-2.3,4.5-3.4,7.6-3.4c3.4,0,5.9,1.4,7.4,4.2h0.1v-14.7h2.1v34.1
	H796z M796,151.7c0-2.1-0.7-4-2-5.4c-1.4-1.5-3.2-2.2-5.5-2.2c-2.4,0-4.4,0.9-6,2.8c-1.6,1.8-2.4,4.4-2.4,7.6c0,3.2,0.7,5.6,2.1,7.4
	c1.4,1.7,3.2,2.6,5.5,2.6c2.6,0,4.6-0.8,6.1-2.4c1.4-1.6,2.2-3.6,2.2-5.9L796,151.7L796,151.7z M813.8,166.2c-3.4,0-6-1.1-8-3.3
	c-2-2.2-2.9-5.1-2.9-8.6c0-3.8,1-6.8,3.1-9c2-2.2,4.7-3.2,8.1-3.2c3.3,0,5.9,1.1,7.8,3.2c1.9,2.1,2.9,5.1,2.9,8.9
	c0,3.6-1,6.5-2.9,8.7C819.9,165.1,817.2,166.2,813.8,166.2z M814,144c-2.7,0-4.9,0.9-6.5,2.7c-1.6,1.8-2.4,4.4-2.4,7.6
	c0,3,0.8,5.4,2.4,7.3c1.6,1.8,3.7,2.7,6.4,2.7c2.8,0,4.9-0.9,6.4-2.7c1.5-1.8,2.2-4.3,2.2-7.5c0-3.3-0.7-5.8-2.2-7.5
	C818.8,144.9,816.7,144,814,144L814,144z M849.1,165.7h-1.9l-5-17.3c-0.1-0.5-0.3-1.1-0.4-1.9h-0.1c0,0.3-0.2,1-0.4,1.9l-5.6,17.4
	h-1.9l-6.9-23h2.3l5.3,18.4c0.1,0.5,0.2,1.1,0.3,1.9h0.2c0-0.4,0.2-1.1,0.4-1.9l5.8-18.4h1.4l5.2,18.4c0.1,0.4,0.2,1.1,0.3,1.9h0.2
	c0-0.4,0.1-1.1,0.4-1.9l5.5-18.4h2.1L849.1,165.7L849.1,165.7z M858.7,164.7v-2.5c0.8,0.7,1.7,1.2,2.8,1.6c1.1,0.4,2.1,0.6,2.9,0.6
	c3.6,0,5.4-1.5,5.4-4.4c0-1-0.4-1.9-1.2-2.6c-0.8-0.7-2.1-1.5-3.9-2.2c-2.2-1-3.7-2-4.6-3c-0.9-1-1.3-2.3-1.3-3.7
	c0-1.9,0.7-3.4,2.1-4.5c1.4-1.2,3.2-1.7,5.3-1.7c2,0,3.7,0.4,5.1,1.2v2.3c-1.7-1.1-3.5-1.7-5.3-1.7c-1.5,0-2.7,0.4-3.7,1.2
	c-0.9,0.8-1.4,1.8-1.4,3.1c0,1.1,0.3,2,0.9,2.7s1.9,1.5,3.9,2.3c2.4,1.1,4,2.1,4.9,3c0.9,0.9,1.3,2.1,1.3,3.7c0,1.8-0.7,3.3-2.1,4.5
	c-1.4,1.2-3.3,1.8-5.7,1.8C862,166.2,860.2,165.7,858.7,164.7z M938.9,165.7v-32.2h2.2v30.2H954v2H938.9z M959.7,136.9
	c-0.4,0-0.8-0.2-1.2-0.5c-0.3-0.3-0.5-0.7-0.5-1.3c0-0.5,0.2-0.9,0.5-1.2c0.4-0.3,0.7-0.5,1.2-0.5c0.5,0,0.9,0.1,1.2,0.4
	c0.4,0.3,0.5,0.7,0.5,1.2c0,0.5-0.2,0.9-0.5,1.2C960.6,136.7,960.2,136.9,959.7,136.9L959.7,136.9z M958.7,165.7v-23h2.1v23H958.7z
	 M982.9,165.7v-13.4c0-5.5-2-8.3-6-8.3c-2.2,0-4,0.8-5.5,2.4c-1.4,1.6-2.1,3.6-2.1,6v13.2h-2.1v-23h2.1v4.2h0.1
	c1.7-3.2,4.3-4.7,7.9-4.7c2.5,0,4.4,0.8,5.7,2.5c1.3,1.7,2,4,2,7.1v14H982.9L982.9,165.7z M1006.2,165.7v-4.2h-0.1
	c-1.6,3.2-4.1,4.7-7.4,4.7c-5.4,0-8.2-3.4-8.2-10.3v-13.3h2.1v12.8c0,3.1,0.5,5.4,1.5,6.8c1,1.4,2.6,2.1,4.8,2.1
	c2.1,0,3.9-0.8,5.2-2.4c1.3-1.6,2-3.7,2-6.3v-13h2.1v23L1006.2,165.7L1006.2,165.7z M1022,154.4l7.5,11.3h-2.6l-6.1-9.7h-0.1
	l-0.8,1.3c-0.1,0.2-0.2,0.4-0.4,0.6l-5.1,7.8h-2.5l7.7-11.2l-7.5-11.8h2.4l5.1,8.2c0.7,1.1,1.1,1.7,1.2,2h0.1l1.1-1.9l5.3-8.3h2.4
	C1029.8,142.7,1022,154.4,1022,154.4z M1107.6,166.2c-4.6,0-8.2-1.5-10.9-4.5c-2.7-3-4.1-7-4.1-11.8c0-5.1,1.4-9.3,4.2-12.3
	c2.8-3.1,6.6-4.6,11.4-4.6c4.3,0,7.9,1.5,10.5,4.5c2.7,3,4,6.9,4,11.7c0,5.3-1.4,9.5-4.1,12.6
	C1115.9,164.7,1112.2,166.2,1107.6,166.2z M1107.8,135c-3.7,0-6.8,1.4-9.2,4.1c-2.4,2.7-3.6,6.3-3.6,10.6c0,4.4,1.1,8,3.4,10.6
	s5.3,3.9,9.2,3.9c4,0,7.1-1.3,9.5-3.9c2.3-2.6,3.5-6.2,3.5-10.9c0-4.6-1.1-8.1-3.4-10.7C1114.8,136.2,1111.8,135,1107.8,135
	L1107.8,135z M1127.6,164.5V162c2.3,1.5,4.6,2.2,7,2.2c2.5,0,4.4-0.5,5.7-1.6c1.3-1,2-2.5,2-4.4c0-1.6-0.4-3-1.3-3.9
	c-0.9-1-2.8-2.3-5.7-4c-3.3-1.9-5.3-3.5-6.2-4.8c-0.9-1.3-1.3-2.8-1.3-4.4c0-2.3,0.9-4.2,2.7-5.8c1.8-1.6,4.1-2.4,7.1-2.4
	c1.9,0,3.8,0.3,5.8,1v2.3c-1.9-0.9-3.9-1.3-6-1.3c-2.2,0-3.9,0.6-5.2,1.7c-1.3,1.1-1.9,2.5-1.9,4.2c0,1.6,0.4,3,1.3,3.9
	c0.9,1,2.8,2.3,5.7,4c3,1.7,5,3.2,6,4.5c1,1.3,1.5,2.8,1.5,4.6c0,2.5-0.9,4.5-2.6,6c-1.7,1.6-4.1,2.3-7.3,2.3
	c-1.1,0-2.4-0.2-3.8-0.5C1129.4,165.4,1128.3,165,1127.6,164.5L1127.6,164.5z M1168.1,165.7l-7.4-12.3c-0.5-0.8-0.9-1.5-1.2-2.2
	h-0.1c-0.4,0.8-0.8,1.6-1.3,2.2l-7.5,12.3h-2.7l10.2-16.2l-9.6-16h2.7l7.2,12.1c0.4,0.6,0.8,1.3,1.2,2.2h0.1l1.2-2.2l7.2-12.1h2.6
	l-9.7,15.9l9.9,16.3H1168.1z"/>
<text transform="matrix(1 0 0 1 354.6158 335)" class="st2 st3">Iniciar sesion</text>
</svg>
